Coordinates
version=1
nRows=5
nColumns=42
inDegrees=yes

Units are S.I. units (second, meters, Newtons, ...)
If the header above contains a line with 'inDegrees', this indicates whether rotational values are in degrees (yes) or radians (no).

endheader
time	pelvis_tilt	pelvis_list	pelvis_rotation	pelvis_tx	pelvis_ty	pelvis_tz	hip_flexion_r	hip_adduction_r	hip_rotation_r	knee_angle_r	knee_adduction_r	knee_angle_r_beta	ankle_angle_r	subtalar_angle_r	mtp_angle_r	hip_flexion_l	hip_adduction_l	hip_rotation_l	knee_angle_l	knee_adduction_l	knee_angle_l_beta	ankle_angle_l	subtalar_angle_l	mtp_angle_l	lumbar_extension	lumbar_bending	lumbar_rotation	arm_flex_r	arm_add_r	arm_rot_r	elbow_flex_r	pro_sup_r	wrist_flex_r	wrist_dev_r	arm_flex_l	arm_add_l	arm_rot_l	elbow_flex_l	pro_sup_l	wrist_flex_l	wrist_dev_l
      1.32000000	     13.61051866	     -5.39283664	      4.15354416	      0.28507918	      0.85380082	     -0.16154701	      3.24659996	      6.88012733	    -10.42129817	     18.32514221	      1.71696394	      0.31983407	     10.32666938	     -9.72691704	     -7.51114421	    -24.60660340	    -10.59671141	      0.56577274	     42.18799631	      9.72654042	      0.73631944	     -7.57916536	    -12.99717055	     -7.51114421	    -24.98141033	      6.26033843	      4.76450719	     -7.35616383	     -7.37250693	     -9.08493029	     26.76914268	     90.00000001	      0.00000000	      0.00000000	     22.19656397	     -6.21377885	      8.82841949	     38.69961009	     90.00000001	      0.00000000	      0.00000000
      1.33000000	     13.39400554	     -5.66710284	      4.01643202	      0.29633571	      0.85478802	     -0.16020124	      2.49543097	      7.44129570	    -10.24615894	     17.88568069	      1.59141481	      0.31216402	     11.05453086	     -9.15617605	     -7.51072586	    -22.63296156	    -11.10767946	      0.74004214	     45.65952237	      9.55593329	      0.79690900	     -8.67794139	    -15.16920935	     -7.51072586	    -24.72761652	      6.50727986	      4.91604586	     -6.33495481	     -7.59173740	     -8.93285465	     26.67386783	     90.00000001	      0.00000000	      0.00000000	     21.39229209	     -6.14027789	      8.68515614	     37.20362992	     90.00000001	      0.00000000	      0.00000000
      1.34000000	     13.52956669	     -5.68112043	      3.86755834	      0.30741586	      0.85618900	     -0.15883388	      1.35354190	      7.71035085	    -10.16730498	     17.55047957	      1.48167984	      0.30631365	     11.78900958	     -8.47139937	     -7.51039113	    -21.09116435	    -11.27245347	      0.61309013	     48.73447467	      9.00125543	      0.85057704	     -8.34881609	    -16.03627910	     -7.51039113	    -24.89899962	      6.43502355	      5.10255534	     -5.30803159	     -7.74970420	     -8.77061410	     26.77759796	     90.00000001	      0.00000000	      0.00000000	     20.63569946	     -6.10948908	      8.57759656	     36.05329290	     90.00000001	      0.00000000	      0.00000000
      1.35000000	     13.57536814	     -5.72213949	      3.65583070	      0.31833564	      0.85739182	     -0.15739462	      0.37242956	      7.98527307	    -10.23552778	     17.33386029	      1.32010092	      0.30253293	     12.51147366	     -7.67562242	     -7.50988193	    -19.36736486	    -11.46106468	     -0.24204986	     51.72463782	      7.94756636	      0.90276523	     -7.11009057	    -16.37486060	     -7.50988193	    -24.99964468	      6.36300169	      5.34927851	     -4.24406539	     -7.92766084	     -8.54511580	     26.93086934	     90.00000001	      0.00000000	      0.00000000	     19.84532867	     -6.05502630	      8.30277055	     34.91632380	     90.00000001	      0.00000000	      0.00000000
      1.36000000	     13.88248102	     -5.51224443	      3.60342172	      0.32917896	      0.85906470	     -0.15631839	     -1.05103561	      7.92932996	    -10.15256343	     16.86543137	      1.36826046	      0.29435731	     13.17341167	     -7.09694986	     -7.50965585	    -17.96174176	    -11.32461798	     -0.82461998	     54.16170066	      6.76480016	      0.94530001	     -5.59621166	    -16.92984175	     -7.50965585	    -25.38837468	      6.07821454	      5.40678439	     -3.15523193	     -8.03916831	     -8.38545137	     27.19491399	     90.00000001	      0.00000000	      0.00000000	     19.05844217	     -6.10077713	      8.27967292	     33.91829480	     90.00000001	      0.00000000	      0.00000000
